<?xml version="1.0" encoding="UTF-8"?> <!-- Generated by IcoMoon.io --> <svg xmlns="http://www.w3.org/2000/svg" version="1.1" width="768" height="768" viewBox="0 0 768 768"><title></title><g id="icomoon-ignore"> </g><path fill="#000" d="M607.5 544.5q13.5 0 23.25-9.75t9.75-23.25-9.75-22.5-23.25-9-22.5 9-9 22.5 9 23.25 22.5 9.75zM607.5 415.5q39 0 67.5 28.5t28.5 67.5-28.5 67.5-67.5 28.5-67.5-28.5-28.5-67.5 28.5-67.5 67.5-28.5zM160.5 192h159v64.5h-159v-64.5zM223.5 544.5q13.5 0 23.25-9.75t9.75-23.25h-64.5q0 13.5 9 23.25t22.5 9.75zM607.5 223.5v108l-144 180h-144q0 39-28.5 67.5t-67.5 28.5-67.5-28.5-28.5-67.5h-63v-96q0-52.5 37.5-90t90-37.5h127.5v160.5h112.5l112.5-139.5v-85.5h-96v-63h96q25.5 0 44.25 18.75t18.75 44.25z"></path></svg> 